<mxfile host="app.diagrams.net" modified="2023-05-16T02:35:17.638Z" agent="Mozilla/5.0 (Macintosh; Intel Mac OS X 10_15_7) AppleWebKit/537.36 (KHTML, like Gecko) Chrome/112.0.0.0 Safari/537.36" version="21.3.2" etag="wDHkh3KdDH-h-kZWjFxV" type="github">
  <diagram name="第 1 页" id="DBZoL3yrAPa5SRrZA7KK">
    <mxGraphModel>
      <root>
        <mxCell id="0" />
        <mxCell id="1" parent="0" />
      </root>
    </mxGraphModel>
  </diagram>
</mxfile>
